/* XPM */
static char *bitcoin16[] = {
/* columns rows colors chars-per-pixel */
"16 16 185 2 ",
"   c #5A4C2D",
".  c #6B542E",
"X  c #6B5A38",
"o  c #7F6E4A",
"O  c #7D7151",
"+  c #8D7C53",
"@  c #907F5D",
"#  c #9A7E58",
"$  c #887D61",
"%  c #988352",
"&  c #95875D",
"*  c #99875F",
"=  c #A58B5B",
"-  c #A28C5D",
";  c #A28F5D",
":  c #9C8C61",
">  c #9E8D60",
",  c #9F8F6B",
"<  c #938A70",
"1  c #948F71",
"2  c #9B9274",
"3  c #9B957F",
"4  c #A18E62",
"5  c #A08E6B",
"6  c #A79366",
"7  c #A99260",
"8  c #A89162",
"9  c #AA9362",
"0  c #AB9562",
"q  c #AA9364",
"w  c #AC9564",
"e  c #AC9664",
"r  c #AD9664",
"t  c #AD9766",
"y  c #AD9867",
"u  c #AA9568",
"i  c #A9976B",
"p  c #AB996A",
"a  c #AD9B69",
"s  c #AE996A",
"d  c #AF9B6B",
"f  c #AB986D",
"g  c #AA9A6F",
"h  c #AE996C",
"j  c #AE9C6C",
"k  c #B19B69",
"l  c #B29B6A",
"z  c #B19C6B",
"x  c #B19C6D",
"c  c #B19E6F",
"v  c #A09476",
"b  c #AA9970",
"n  c #AD9D74",
"m  c #A59B79",
"M  c #B29E72",
"N  c #ADA07D",
"B  c #B1A074",
"V  c #B2A076",
"C  c #B9A476",
"Z  c #B1A078",
"A  c #B3A37A",
"S  c #B7A578",
"D  c #B4A47A",
"F  c #B2A47F",
"G  c #B5A57C",
"H  c #B6A67D",
"J  c #B8A678",
"K  c #B8A77C",
"L  c #B3A480",
"P  c #BCAB80",
"I  c #BDAB81",
"U  c #B8AA86",
"Y  c #B8AA87",
"T  c #BCAE87",
"R  c #BBAD88",
"E  c #BDB08A",
"W  c #BFB18C",
"Q  c #BDB08E",
"!  c #B9AF91",
"~  c #BDB292",
"^  c #BFB691",
"/  c #C0AF84",
"(  c #C0AF86",
")  c #C1B38F",
"_  c #C3B48E",
"`  c #C4B58E",
"'  c #C0B390",
"]  c #C2B690",
"[  c #C1B492",
"{  c #C3B692",
"}  c #C2B694",
"|  c #C2B697",
" . c #C6B998",
".. c #C7BC9B",
"X. c #C1BA9E",
"o. c #C8BB9B",
"O. c #C9BD9B",
"+. c #CBBD9A",
"@. c #C5BFA4",
"#. c #C8BFA1",
"$. c #CABFA1",
"%. c #C8BFA2",
"&. c #C4BEA8",
"*. c #E8D097",
"=. c #C9C0A1",
"-. c #C9C0A3",
";. c #CBC0A2",
":. c #CBC2A5",
">. c #CDC2A4",
",. c #CDC2A5",
"<. c #CBC4A7",
"1. c #CFC5A5",
"2. c #CFC6A9",
"3. c #CDC6AA",
"4. c #CEC7AB",
"5. c #CFC8AB",
"6. c #CFC8AC",
"7. c #D2C9AB",
"8. c #D0C9AE",
"9. c #D0CAAE",
"0. c #D1CAAE",
"q. c #D3CDAF",
"w. c #D2CBB0",
"e. c #D2CBB3",
"r. c #D3CDB1",
"t. c #D4CEB1",
"y. c #D4CDB2",
"u. c #D4CEB3",
"i. c #D5CEB3",
"p. c #D3CFB7",
"a. c #D5CFB5",
"s. c #D6CFB5",
"d. c #D5D1B6",
"f. c #D7D1B7",
"g. c #D7D2B6",
"h. c #D7D2B7",
"j. c #D9D4B7",
"k. c #D7D1B8",
"l. c #D8D3B8",
"z. c #D8D2B9",
"x. c #D9D3B9",
"c. c #D9D5BA",
"v. c #DAD4BA",
"b. c #DAD4BC",
"n. c #DAD5BC",
"m. c #DCD6BE",
"M. c #DCD7BF",
"N. c #E8CFA6",
"B. c #EFD4AB",
"V. c #EFD6AA",
"C. c #E0D8BB",
"Z. c #EADBB8",
"A. c #F6DEBB",
"S. c #F0E0BD",
"D. c #F0E0BF",
"F. c #F0E2BF",
"G. c #DEDAC0",
"H. c #DEDAC1",
"J. c #DFDBC2",
"K. c #E0D9C2",
"L. c #E7DDCD",
"P. c #F2E3C4",
"I. c #F5E6C5",
"U. c #F8E4C4",
"Y. c #F5EACA",
"T. c #F7EAD2",
"R. c #F8EDD0",
"E. c #FAEED6",
"W. c #F7F3D0",
"Q. c #F9F1D1",
"!. c #F9F7D1",
"~. c #F8F1D5",
"^. c #FBF7D4",
"/. c #F9F9D6",
"(. c #FCF5DB",
"). c #FDF6DD",
"_. c #FCFBDF",
"`. c #FDFCDE",
"'. c #F5F3E1",
"]. c #FCF9E1",
"[. c #FDFAE5",
"{. c #FEFCE7",
"}. c #FEFDE8",
"|. c #FFFEEC",
" X c None",
/* pixels */
" X X X X^ k.J.H.G.e.p. X X X X X",
" X Xg.v.v.a L p.&.G.G.H.H. X X X",
" Xi.w.q.t.t.H.H.k.e.p.p.a.w. X X",
" X1.; <.k.k.b.k.G.p.z.< t.8. X X",
", O.%.4.7.@.3.q.8.8.7.8.,.2.$. X",
"[ % | %.@.*.-.:.=.N.! ,.O. .o. X",
"L $ Q ~ 2 D.T.E.P.F.Z.' N ` `  X",
"Z F U U A.Y.~.[.W.[ /.I / I /  X",
"f n b O ].}.|.`.'.`./.1 * & M  X",
"u . i z |.}.^.Q.).(.Y.p + + a  X",
"- X 9 4 @ I.V.B.A.U.L.M c t l  X",
" X- 7 t z c 4 # : B V j t y  X X",
" X0 l l 0 9 ` E | c q a a >  X X",
" X XK C K v   D A 5 G G g  X X X",
" X X X XT ) m [ o.) R  X X X X X",
" X X X X X X X X X X X X X X X X"
};
